<svg xmlns="http://www.w3.org/2000/svg" viewBox="0 0 1000 89.43" role="img" aria-label="SERRES"><defs><linearGradient id="c" x1="0.035" y1="0" x2="0" y2="1"><stop offset="0" stop-color="#fdfdfe"/><stop offset=".32" stop-color="#cfcfd6"/><stop offset=".52" stop-color="#8d8d97"/><stop offset=".72" stop-color="#f0f0f4"/><stop offset="1" stop-color="#a6a6b0"/></linearGradient></defs><path fill="url(#c)" fill-rule="evenodd" d="M131.36 0L497.58 0.48L505.82 2.18L510.91 4.36L513.57 6.79L515.03 9.94L514.78 16.72L511.88 23.02L501.94 36.84L494.18 45.81L488.37 49.44L480.37 51.62L460.25 52.11L462.68 56.96L483.52 88.22L483.28 89.43L454.92 89.19L438.92 63.5L429.96 51.14L394.09 51.62L365.24 89.43L234.61 89.19L226.61 87.74L222.25 85.8L218.61 82.16L217.16 78.77L217.4 72.95L220.31 66.41L241.4 38.78L244.06 35.87L246.73 34.66L358.94 34.66L359.19 35.63L350.95 46.53L347.55 50.65L346.1 51.14L260.79 51.38L246.97 68.83L247.7 71.01L258.36 71.74L347.79 72.95L350.95 71.74L370.09 45.81L379.79 34.17L468.98 34.17L475.04 33.45L480.61 31.02L485.7 24.72L486.43 22.78L485.94 19.87L481.82 17.69L474.55 16.97L161.66 16.72L115.12 17.69L110.76 19.87L102.28 33.2L107.61 34.42L195.59 35.14L206.01 36.35L210.86 38.29L213.28 40.48L214.49 43.38L214.25 48.72L212.07 53.81L192.68 78.77L187.59 83.37L182.5 86.28L168.93 89.43L0.48 89.43L0 88.71L0.97 87.74L21.57 72.22L159.23 72.71L167.47 71.98L173.29 69.07L183.23 55.74L183.23 53.81L181.29 52.35L173.29 51.62L83.13 51.62L74.65 50.65L71.26 49.68L69.07 47.99L68.35 45.56L69.07 40.48L92.34 9.45L98.16 4.12L107.85 0.73L131.36 0.24ZM599.13 0L658.02 0.73L666.75 2.18L671.35 4.36L673.78 6.79L674.99 10.42L673.78 19.87L666.99 30.05L655.36 44.84L650.27 48.47L641.78 51.38L617.3 52.11L619.49 56.96L640.33 89.19L611 89.19L585.8 50.65L537.08 50.9L532.48 55.74L507.03 89.43L503.39 89.19L492.73 70.77L511.88 44.84L521.33 33.93L628.45 34.17L638.88 32.23L642.75 28.84L646.63 22.54L645.42 19.39L640.57 17.45L533.93 16.97L533.93 15.75L540.48 7.03L546.53 0.24L599.13 0.24ZM736.31 0L834.22 0.24L834.46 1.45L827.68 10.66L822.59 16.72L820.65 16.97L726.85 16.97L720.55 18.66L714.49 24.48L708.92 32.48L709.16 33.69L807.08 33.93L807.32 34.9L794.47 50.65L696.07 50.9L682.5 68.83L682.74 70.53L695.35 71.98L709.89 72.22L852.4 72.95L910.57 72.95L919.29 71.98L925.59 68.59L935.53 55.5L934.08 52.59L929.23 51.87L836.4 51.62L828.16 50.65L823.8 48.96L822.1 46.53L822.1 42.41L823.07 40.48L847.07 8.48L850.95 4.85L856.03 2.18L865.49 0.24L992.73 0L1000 0.73L987.88 16.97L872.52 17.21L867.91 17.94L863.55 21.33L856.03 31.75L856.03 33.2L858.22 34.17L926.56 34.17L950.56 35.14L958.8 36.35L964.13 39.02L966.31 42.17L966.55 47.26L965.34 50.9L960.49 58.41L941.83 81.68L930.68 87.49L919.53 89.43L674.02 89.43L665.78 88.46L660.69 86.52L654.63 81.43L653.42 77.56L653.9 71.74L656.57 65.2L660.2 59.62L695.35 13.09L703.59 3.39L707.22 1.45L712.31 0.24L736.31 0.24Z"/></svg>